<svg xmlns="http://www.w3.org/2000/svg" xmlns:xlink="http://www.w3.org/1999/xlink" width="500" zoomAndPan="magnify" viewBox="0 0 375 374.999991" height="500" preserveAspectRatio="xMidYMid meet" version="1.2"><defs/><g id="d82433d65b"><rect x="0" width="375" y="0" height="374.999991" style="fill:#ffffff;fill-opacity:1;stroke:none;"/><rect x="0" width="375" y="0" height="374.999991" style="fill:#292929;fill-opacity:1;stroke:none;"/><g style="fill:#e4e2dd;fill-opacity:1;"><g transform="translate(136.982158, 222.222132)"><path style="stroke:none" d="M 9.171875 0 L 9.171875 -78.375 L 36.203125 -78.375 L 36.203125 -70.125 L 36.515625 -70.125 C 43.535156 -77.144531 51.019531 -80.65625 58.96875 -80.65625 C 62.832031 -80.65625 66.675781 -80.144531 70.5 -79.125 C 74.320312 -78.113281 77.988281 -76.535156 81.5 -74.390625 C 85.007812 -72.253906 87.859375 -69.222656 90.046875 -65.296875 C 92.242188 -61.378906 93.34375 -56.828125 93.34375 -51.640625 L 93.34375 0 L 66.296875 0 L 66.296875 -44.296875 C 66.296875 -48.367188 65 -51.929688 62.40625 -54.984375 C 59.8125 -58.046875 56.425781 -59.578125 52.25 -59.578125 C 48.175781 -59.578125 44.484375 -58 41.171875 -54.84375 C 37.859375 -51.6875 36.203125 -48.171875 36.203125 -44.296875 L 36.203125 0 Z M 9.171875 0 "/></g></g><path style="fill:none;stroke-width:29;stroke-linecap:butt;stroke-linejoin:miter;stroke:#e4e2dd;stroke-opacity:1;stroke-miterlimit:4;" d="M -0.00177191 14.499569 L 240.795119 14.499569 " transform="matrix(0.75,0,0,0.75,71.071641,281.640949)"/><path style="fill:none;stroke-width:29;stroke-linecap:butt;stroke-linejoin:miter;stroke:#e4e2dd;stroke-opacity:1;stroke-miterlimit:4;" d="M 0.00161506 14.498312 L 235.178725 14.498312 " transform="matrix(0,0.749452,-0.749452,0,92.639223,120.412852)"/><path style="fill:none;stroke-width:29;stroke-linecap:butt;stroke-linejoin:miter;stroke:#e4e2dd;stroke-opacity:1;stroke-miterlimit:4;" d="M 0.00245276 14.499556 L 240.794135 14.499556 " transform="matrix(-0.75,0,0,-0.75,303.454965,93.359041)"/><path style="fill:none;stroke-width:29;stroke-linecap:butt;stroke-linejoin:miter;stroke:#e4e2dd;stroke-opacity:1;stroke-miterlimit:4;" d="M 0.00159501 14.502493 L 235.178705 14.502493 " transform="matrix(0,-0.749452,0.749452,0,281.713112,254.587133)"/></g></svg>